<svg width="32" height="32" viewBox="0 0 32 32" fill="none" xmlns="http://www.w3.org/2000/svg">
<rect width="32" height="32" fill="white" fill-opacity="0.01"/>
<path fill-rule="evenodd" clip-rule="evenodd" d="M22.7076 3.29118C22.8007 3.38407 22.8746 3.49442 22.925 3.61591C22.9754 3.7374 23.0014 3.86764 23.0014 3.99918C23.0014 4.13071 22.9754 4.26096 22.925 4.38245C22.8746 4.50394 22.8007 4.61429 22.7076 4.70718L11.4136 15.9992L22.7076 27.2912C22.8954 27.479 23.0009 27.7336 23.0009 27.9992C23.0009 28.2647 22.8954 28.5194 22.7076 28.7072C22.5198 28.895 22.2651 29.0004 21.9996 29.0004C21.734 29.0004 21.4794 28.895 21.2916 28.7072L9.29159 16.7072C9.19846 16.6143 9.12458 16.5039 9.07416 16.3824C9.02375 16.261 8.9978 16.1307 8.9978 15.9992C8.9978 15.8676 9.02375 15.7374 9.07416 15.6159C9.12458 15.4944 9.19846 15.3841 9.29159 15.2912L21.2916 3.29118C21.3845 3.19805 21.4948 3.12417 21.6163 3.07375C21.7378 3.02334 21.8681 2.99739 21.9996 2.99739C22.1311 2.99739 22.2614 3.02334 22.3829 3.07375C22.5043 3.12417 22.6147 3.19805 22.7076 3.29118Z" fill="white"/>
</svg>
