<svg width="32" height="32" viewBox="0 0 32 32" fill="none" xmlns="http://www.w3.org/2000/svg">
<rect width="32" height="32" fill="white" fill-opacity="0.01"/>
<path fill-rule="evenodd" clip-rule="evenodd" d="M9.29165 3.29118C9.38454 3.19805 9.49489 3.12417 9.61638 3.07375C9.73787 3.02334 9.86812 2.99739 9.99965 2.99739C10.1312 2.99739 10.2614 3.02334 10.3829 3.07375C10.5044 3.12417 10.6148 3.19805 10.7077 3.29118L22.7077 15.2912C22.8008 15.3841 22.8747 15.4944 22.9251 15.6159C22.9755 15.7374 23.0014 15.8676 23.0014 15.9992C23.0014 16.1307 22.9755 16.261 22.9251 16.3824C22.8747 16.5039 22.8008 16.6143 22.7077 16.7072L10.7077 28.7072C10.5199 28.895 10.2652 29.0004 9.99965 29.0004C9.7341 29.0004 9.47942 28.895 9.29165 28.7072C9.10388 28.5194 8.99839 28.2647 8.99839 27.9992C8.99839 27.7336 9.10388 27.479 9.29165 27.2912L20.5857 15.9992L9.29165 4.70718C9.19852 4.61429 9.12464 4.50394 9.07423 4.38245C9.02381 4.26096 8.99786 4.13071 8.99786 3.99918C8.99786 3.86764 9.02381 3.7374 9.07423 3.61591C9.12464 3.49442 9.19852 3.38407 9.29165 3.29118Z" fill="white"/>
</svg>
